<?xml version="1.0" encoding="UTF-8"?>
<svg id="Layer_1" data-name="Layer 1" xmlns="http://www.w3.org/2000/svg" viewBox="0 0 787 332">
  <defs>
    <style>
      .cls-1 {
        fill: #353435;
      }
    </style>
  </defs>
  <g>
    <g>
      <path class="cls-1" d="m423,249.77l-1.76-5.39h-10.02l-1.8,5.39h-5.61l9.5-26.75h6.09l9.25,26.75h-5.65Zm-6.75-20.44l-3.49,10.46h6.97l-3.49-10.46Z"/>
      <path class="cls-1" d="m448.72,249.77c-.7-1.28-.84-2.09-.84-4.59l.07-2.83c0-2.24-1.03-3.19-3.41-3.19h-6.31v10.6h-5.5v-26.75h14.35c4.73,0,7.19,3.08,7.19,7.23,0,3.26-1.5,5.43-4.51,6.61,3.41,1.47,3.56,1.83,3.71,9.72,0,1.17.33,1.72,1.17,2.2v.99h-5.91Zm-3.85-22.16h-6.64v6.97h6.64c3.12,0,3.89-1.17,3.89-3.56s-.88-3.41-3.89-3.41Z"/>
      <path class="cls-1" d="m481.27,251.35l-3.16-2.97c-2.13,1.28-4.18,1.84-6.94,1.84-7.78,0-12.88-5.8-12.88-13.83s5.06-13.8,12.88-13.8,12.88,5.83,12.88,13.72c0,3.6-1.14,7.08-2.94,9.28l2.94,2.79-2.79,2.97Zm-10.09-24.07c-4.44,0-7.38,3.49-7.38,9.1s2.94,9.14,7.34,9.14c1.17,0,2.39-.26,3.23-.7l-2.82-2.68,2.79-2.97,3.01,2.86c.81-1.61,1.21-3.41,1.21-5.61,0-5.47-2.9-9.14-7.38-9.14Z"/>
      <path class="cls-1" d="m499.1,250.21c-6.13,0-10.6-3.16-10.6-9.47v-17.72h5.5v17.72c0,3.23,1.65,4.77,5.1,4.77s5.1-1.54,5.1-4.77v-17.72h5.5v17.72c0,6.31-4.48,9.47-10.61,9.47Z"/>
      <path class="cls-1" d="m514.95,249.77v-26.75h5.5v26.75h-5.5Z"/>
      <path class="cls-1" d="m537.41,227.6v22.16h-5.5v-22.16h-8.11v-4.59h21.43v4.59h-7.82Z"/>
      <path class="cls-1" d="m549.04,249.77v-26.75h19.34v4.59h-13.83v6.05h12.81v4.59h-12.81v6.94h14.49v4.59h-20Z"/>
      <path class="cls-1" d="m584.78,250.21c-7.45,0-12.11-5.21-12.11-13.8s4.7-13.83,12.26-13.83c6.02,0,10.68,3.34,11.15,9.5h-5.25c-.81-3.45-2.75-4.81-5.72-4.81-4.33,0-6.94,3.3-6.94,9.21s2.49,9.1,6.75,9.1c3.41,0,5.58-1.54,5.91-4.95h5.36c-.33,6.13-4.77,9.58-11.41,9.58Z"/>
      <path class="cls-1" d="m612.12,227.6v22.16h-5.5v-22.16h-8.11v-4.59h21.43v4.59h-7.82Z"/>
      <path class="cls-1" d="m634.25,250.21c-6.13,0-10.6-3.16-10.6-9.47v-17.72h5.5v17.72c0,3.23,1.65,4.77,5.1,4.77s5.1-1.54,5.1-4.77v-17.72h5.5v17.72c0,6.31-4.48,9.47-10.61,9.47Z"/>
      <path class="cls-1" d="m666.72,249.77c-.7-1.28-.84-2.09-.84-4.59l.07-2.83c0-2.24-1.03-3.19-3.41-3.19h-6.31v10.6h-5.5v-26.75h14.35c4.73,0,7.19,3.08,7.19,7.23,0,3.26-1.51,5.43-4.51,6.61,3.41,1.47,3.56,1.83,3.71,9.72,0,1.17.33,1.72,1.17,2.2v.99h-5.91Zm-3.85-22.16h-6.64v6.97h6.64c3.12,0,3.89-1.17,3.89-3.56s-.88-3.41-3.89-3.41Z"/>
      <path class="cls-1" d="m694.87,249.77l-1.76-5.39h-10.02l-1.8,5.39h-5.61l9.5-26.75h6.09l9.25,26.75h-5.65Zm-6.75-20.44l-3.49,10.46h6.97l-3.49-10.46Z"/>
    </g>
    <g>
      <path class="cls-1" d="m291.62,200.5v-99.36h20.44v99.36h-20.44Z"/>
      <path class="cls-1" d="m372.99,200.5v-45.39c0-8.72-4.09-13.22-12.27-13.22-9.27,0-15.4,5.72-15.4,14.45v44.16h-19.08v-73.6h19.08v10.63c5.45-8.18,12.13-11.86,22.08-11.86,15.67,0,24.67,9.27,24.67,25.49v49.34h-19.08Z"/>
      <path class="cls-1" d="m429,141.07v59.43h-19.08v-59.43h-10.36v-12.68h10.36v-8.86c0-12.4,6.13-18.4,18.81-18.4,2.59,0,7.36.14,10.9.41v14.31c-1.64-.27-3.82-.41-5.45-.41-3.54,0-5.18,1.91-5.18,5.72v7.22h11.31v12.68h-11.31Zm23.17-23.03v-16.46h19.08v16.46h-19.08Zm0,82.46v-73.6h19.08v73.6h-19.08Z"/>
      <path class="cls-1" d="m530.54,200.5v-45.39c0-8.72-4.09-13.22-12.27-13.22-9.27,0-15.4,5.72-15.4,14.45v44.16h-19.08v-73.6h19.08v10.63c5.45-8.18,12.13-11.86,22.08-11.86,15.67,0,24.67,9.27,24.67,25.49v49.34h-19.08Z"/>
      <path class="cls-1" d="m562.02,200.5v-73.6h19.08v73.6h-19.08Zm.27-82.46v-16.46h19.08v16.46h-19.08Z"/>
      <path class="cls-1" d="m617.49,201.04c-12.54,0-18.67-4.77-18.67-16.36v-44.93h-9.4v-12.68h9.4v-18.45h19.08v18.45h10.63v12.68h-10.63v39.75c0,6.54,1.23,8.04,6.27,8.04,1.36,0,2.45-.14,4.36-.41v13.36c-3.41.14-6.81.55-11.04.55Z"/>
      <path class="cls-1" d="m681.01,200.5c-1.77-2.18-2.18-5.45-2.18-9.27-6.68,6.95-14.18,10.5-22.35,10.5-12.27,0-22.35-6.81-22.35-21.13,0-13.36,7.09-19.63,21.67-22.22l7.63-1.36c9.54-1.64,15.27-.82,15.27-8.59,0-4.91-3.68-7.36-11.04-7.36-9.4,0-12.54,2.45-13.49,10.09h-18.4c1.23-17.04,11.59-25.49,31.49-25.49s30.12,7.63,30.12,22.63v40.89c0,3.82.95,5.86,4.36,9v2.32h-20.72Zm-2.32-34.76c-2.18,1.09-3,1.36-8.04,2.32l-6.54,1.23c-7.91,1.5-10.9,3.54-10.9,9.13s3.95,7.91,10.36,7.91c9.68,0,15.13-6.27,15.13-17.31v-3.27Z"/>
    </g>
    <path class="cls-1" d="m730.85,143.96c-2.37,0-4.6-.44-6.67-1.33-2.07-.89-3.89-2.11-5.46-3.69-1.57-1.57-2.8-3.4-3.69-5.47s-1.33-4.29-1.33-6.66.44-4.6,1.33-6.67c.89-2.07,2.11-3.89,3.69-5.46,1.57-1.57,3.39-2.8,5.46-3.69,2.07-.89,4.3-1.33,6.67-1.33s4.59.44,6.66,1.33,3.9,2.11,5.47,3.69,2.8,3.39,3.69,5.46c.89,2.07,1.33,4.3,1.33,6.67s-.44,4.59-1.33,6.66c-.89,2.07-2.11,3.9-3.69,5.47s-3.4,2.8-5.47,3.69-4.29,1.33-6.66,1.33Zm0-4.12c2.4,0,4.59-.58,6.56-1.76,1.97-1.17,3.54-2.74,4.72-4.72,1.17-1.97,1.76-4.16,1.76-6.56s-.59-4.59-1.76-6.56c-1.17-1.98-2.74-3.55-4.72-4.72-1.97-1.17-4.16-1.76-6.56-1.76s-4.59.59-6.56,1.76c-1.97,1.17-3.55,2.74-4.72,4.72-1.17,1.97-1.76,4.15-1.76,6.56s.59,4.59,1.76,6.56c1.17,1.97,2.74,3.54,4.72,4.72,1.97,1.17,4.15,1.76,6.56,1.76Zm-6-5.31v-15.82h8.01c.64,0,1.34.18,2.1.55.76.36,1.41.92,1.94,1.67.54.75.8,1.7.8,2.84s-.28,2.14-.84,2.95c-.56.8-1.23,1.42-2.02,1.83-.8.41-1.54.62-2.24.62h-5.79v-2.57h4.72c.47,0,.98-.23,1.53-.71.55-.47.82-1.18.82-2.12s-.28-1.63-.82-1.97c-.55-.34-1.03-.51-1.45-.51h-3.3v13.25h-3.47Zm9.56-7.46l3.94,7.46h-3.81l-3.86-7.46h3.73Z"/>
  </g>
  <g>
    <polygon class="cls-1" points="94.55 108.55 39 127.07 39 154.84 94.55 136.33 94.55 108.55"/>
    <polygon class="cls-1" points="150.1 99.29 94.55 80.78 94.55 108.55 150.1 127.07 150.1 99.29"/>
    <polygon class="cls-1" points="94.55 173.36 39 154.84 39 182.62 94.55 201.13 150.1 182.62 150.1 154.84 94.55 173.36"/>
    <polygon class="cls-1" points="205.65 108.55 150.1 127.07 150.1 154.84 205.65 136.33 261.2 154.84 261.2 127.07 205.65 108.55"/>
    <polygon class="cls-1" points="205.65 201.13 261.2 182.62 261.2 154.84 205.65 173.36 205.65 201.13"/>
    <polygon class="cls-1" points="150.1 210.39 205.65 228.91 205.65 201.13 150.1 182.62 150.1 210.39"/>
  </g>
</svg>