<?xml version="1.0" encoding="UTF-8"?>
<svg id="Layer_1" data-name="Layer 1" xmlns="http://www.w3.org/2000/svg" viewBox="0 0 787 332">
  <defs>
    <style>
      .cls-1 {
        fill: #f9f9f9;
      }
    </style>
  </defs>
  <g>
    <g>
      <path class="cls-1" d="m291.63,210.96v-99.16h20.4v99.16h-20.4Z"/>
      <path class="cls-1" d="m372.84,210.96v-45.29c0-8.71-4.08-13.19-12.24-13.19-9.25,0-15.37,5.71-15.37,14.42v44.07h-19.04v-73.45h19.04v10.61c5.44-8.16,12.11-11.83,22.04-11.83,15.64,0,24.62,9.25,24.62,25.44v49.24h-19.04Z"/>
      <path class="cls-1" d="m428.74,151.66v59.3h-19.04v-59.3h-10.34v-12.65h10.34v-8.84c0-12.38,6.12-18.36,18.77-18.36,2.58,0,7.35.14,10.88.41v14.28c-1.63-.27-3.81-.41-5.44-.41-3.54,0-5.17,1.9-5.17,5.71v7.21h11.29v12.65h-11.29Zm23.12-22.99v-16.43h19.04v16.43h-19.04Zm0,82.29v-73.45h19.04v73.45h-19.04Z"/>
      <path class="cls-1" d="m530.07,210.96v-45.29c0-8.71-4.08-13.19-12.24-13.19-9.25,0-15.37,5.71-15.37,14.42v44.07h-19.04v-73.45h19.04v10.61c5.44-8.16,12.11-11.83,22.04-11.83,15.64,0,24.62,9.25,24.62,25.44v49.24h-19.04Z"/>
      <path class="cls-1" d="m561.48,210.96v-73.45h19.04v73.45h-19.04Zm.27-82.29v-16.43h19.04v16.43h-19.04Z"/>
      <path class="cls-1" d="m616.84,211.51c-12.51,0-18.63-4.76-18.63-16.32v-44.83h-9.39v-12.65h9.39v-18.42h19.04v18.42h10.61v12.65h-10.61v39.67c0,6.53,1.22,8.03,6.26,8.03,1.36,0,2.45-.14,4.35-.41v13.33c-3.4.14-6.8.54-11.02.54Z"/>
      <path class="cls-1" d="m680.23,210.96c-1.77-2.18-2.18-5.44-2.18-9.25-6.66,6.94-14.15,10.47-22.31,10.47-12.24,0-22.31-6.8-22.31-21.08,0-13.33,7.07-19.59,21.63-22.17l7.62-1.36c9.52-1.63,15.23-.82,15.23-8.57,0-4.9-3.67-7.35-11.02-7.35-9.39,0-12.51,2.45-13.47,10.07h-18.36c1.22-17,11.56-25.44,31.42-25.44s30.06,7.62,30.06,22.58v40.81c0,3.81.95,5.85,4.35,8.98v2.31h-20.68Zm-2.31-34.69c-2.18,1.09-2.99,1.36-8.03,2.31l-6.53,1.22c-7.89,1.5-10.88,3.54-10.88,9.11s3.94,7.89,10.34,7.89c9.66,0,15.1-6.26,15.1-17.27v-3.26Z"/>
    </g>
    <path class="cls-1" d="m729.97,154.54c-2.37,0-4.59-.44-6.65-1.33s-3.88-2.11-5.45-3.68c-1.57-1.57-2.79-3.39-3.68-5.46s-1.33-4.28-1.33-6.65.44-4.59,1.33-6.65c.89-2.07,2.11-3.88,3.68-5.45,1.57-1.57,3.38-2.79,5.45-3.68,2.07-.89,4.29-1.33,6.65-1.33s4.58.44,6.65,1.33c2.07.89,3.89,2.11,5.46,3.68s2.79,3.38,3.68,5.45c.89,2.07,1.33,4.29,1.33,6.65s-.44,4.58-1.33,6.65c-.89,2.07-2.11,3.89-3.68,5.46s-3.39,2.79-5.46,3.68-4.28,1.33-6.65,1.33Zm0-4.11c2.39,0,4.58-.58,6.54-1.75,1.97-1.17,3.54-2.74,4.71-4.71,1.17-1.97,1.76-4.15,1.76-6.54s-.59-4.58-1.76-6.54c-1.17-1.97-2.74-3.54-4.71-4.71-1.97-1.16-4.15-1.75-6.54-1.75s-4.58.59-6.54,1.75c-1.97,1.17-3.54,2.74-4.71,4.71-1.17,1.97-1.76,4.15-1.76,6.54s.59,4.58,1.76,6.54c1.16,1.97,2.74,3.54,4.71,4.71s4.15,1.75,6.54,1.75Zm-5.99-5.3v-15.79h8c.64,0,1.34.18,2.1.55.76.36,1.4.92,1.94,1.66.54.75.8,1.7.8,2.83s-.28,2.14-.83,2.94c-.55.8-1.23,1.41-2.02,1.83-.79.41-1.54.62-2.24.62h-5.77v-2.57h4.71c.47,0,.98-.23,1.53-.71.55-.47.82-1.17.82-2.12s-.28-1.62-.82-1.97c-.55-.34-1.03-.51-1.44-.51h-3.3v13.22h-3.46Zm9.54-7.44l3.94,7.44h-3.81l-3.85-7.44h3.72Z"/>
  </g>
  <g>
    <polygon class="cls-1" points="95.35 119.8 39.92 138.28 39.92 166 95.35 147.52 95.35 119.8"/>
    <polygon class="cls-1" points="150.79 110.56 95.35 92.09 95.35 119.8 150.79 138.28 150.79 110.56"/>
    <polygon class="cls-1" points="95.35 184.48 39.92 166 39.92 193.72 95.35 212.2 150.79 193.72 150.79 166 95.35 184.48"/>
    <polygon class="cls-1" points="206.22 119.8 150.79 138.28 150.79 166 206.22 147.52 261.66 166 261.66 138.28 206.22 119.8"/>
    <polygon class="cls-1" points="206.22 212.2 261.66 193.72 261.66 166 206.22 184.48 206.22 212.2"/>
    <polygon class="cls-1" points="150.79 221.44 206.22 239.91 206.22 212.2 150.79 193.72 150.79 221.44"/>
  </g>
</svg>